<svg id="Layer_1" enable-background="new 0 0 495.881 495.881" height="512" viewBox="0 0 495.881 495.881" width="512" xmlns="http://www.w3.org/2000/svg"><path d="m473.073 139.304c11.024-11.024 22.808-20.005 22.808-39.643 0-10.857-4.229-21.064-11.905-28.74l-18.194-18.194 13.283-13.283c6.249-6.248 6.249-16.379 0-22.627-6.248-6.248-16.379-6.248-22.627 0l-13.283 13.283-18.194-18.194c-7.677-7.677-17.884-11.906-28.741-11.906-19.313 0-28.096 11.261-39.643 22.808l-10.631-10.631c-15.846-15.848-41.632-15.849-57.481.001l-7.125 7.126c-15.848 15.847-15.848 41.633 0 57.479l57.565 57.565-204.575 204.576-57.565-57.565c-15.847-15.848-41.631-15.849-57.479 0l-7.127 7.127c-15.848 15.847-15.848 41.633 0 57.479l10.631 10.631-10.903 10.903c-15.848 15.847-15.848 41.633 0 57.479l18.195 18.195-13.388 13.387c-10.112 10.11-2.809 27.313 11.313 27.313 4.095 0 8.189-1.563 11.313-4.687l13.388-13.386 18.195 18.195c15.847 15.847 41.631 15.848 57.479 0l10.903-10.903c10.624 10.624 19.71 22.517 39.37 22.517 19.034 0 28.301-11.446 35.867-19.013 15.848-15.847 15.848-41.633 0-57.479l-57.565-57.565 204.575-204.575 57.565 57.565c15.848 15.848 41.633 15.847 57.479.001 7.834-7.833 7.029-7.127 7.129-7.127 15.847-15.849 15.846-41.634-.001-57.48zm-82.967-104.772c3.379-3.379 8.846-3.379 12.227 0 1.004 1.004 55.807 55.808 59.016 59.017 3.379 3.379 3.379 8.847 0 12.226l-10.531 10.531-71.242-71.242zm-290.464 429.367c-2.309 0-4.479-.898-6.112-2.531-7.104-7.104-51.674-51.674-59.017-59.017-3.377-3.377-3.379-8.847 0-12.226l10.532-10.532 71.242 71.242c-10.899 10.9-12.016 13.064-16.645 13.064zm92.254-9.93-7.127 7.127c-3.371 3.37-8.854 3.368-12.226 0l-137.758-137.758c-3.37-3.371-3.37-8.854 0-12.226 7.378-7.378 8.754-9.654 13.239-9.654 2.214 0 4.428.843 6.113 2.527l137.758 137.758c3.371 3.371 3.371 8.855.001 12.226zm269.18-269.181-7.126 7.126c-3.372 3.37-8.855 3.368-12.226 0l-137.757-137.758c-3.37-3.371-3.37-8.854.001-12.227 7.379-7.379 8.753-9.653 13.238-9.653 2.214 0 4.428.843 6.113 2.527l137.758 137.758c3.37 3.372 3.37 8.856-.001 12.227z"/></svg>