<svg height="512pt" viewBox="-6 0 512 512" width="512pt" xmlns="http://www.w3.org/2000/svg"><path d="m427.863281 136.527344h-114.414062c12.054687-14.445313 19.324219-33.019532 19.324219-53.261719 0-45.914063-37.351563-83.265625-83.261719-83.265625-45.914063 0-83.265625 37.351562-83.265625 83.265625 0 20.242187 7.269531 38.816406 19.324218 53.261719h-114.414062l-71.15625 375.472656h499.019531zm-178.351562-106.527344c29.367187 0 53.261719 23.894531 53.261719 53.265625 0 29.367187-23.894532 53.261719-53.261719 53.261719-29.371094 0-53.265625-23.894532-53.265625-53.261719 0-29.371094 23.894531-53.265625 53.265625-53.265625zm-31.417969 354.480469-37.292969-53.007813-12.339843 12.03125v40.976563h-24.46875v-119.890625h24.46875v47.535156l47.605468-47.535156h34.050782l-51.84375 50.070312 51.40625 69.820313zm136.933594-17.875-1.867188 1.492187c-7.523437 5.996094-15.417968 10.582032-23.464844 13.625-8.132812 3.074219-16.59375 4.632813-25.160156 4.632813-11.5625 0-22.242187-2.523438-31.746094-7.503907-9.707031-5.085937-17.140624-12.554687-22.097656-22.191406-4.847656-9.417968-7.304687-20.050781-7.304687-31.597656 0-11.40625 2.425781-22.214844 7.207031-32.125 4.921875-10.199219 12.136719-17.898438 21.441406-22.882812 9.089844-4.871094 19.644532-7.339844 31.375-7.339844 8.550782 0 16.425782 1.421875 23.410156 4.21875 7.207032 2.890625 12.980469 7.027344 17.15625 12.285156 4.070313 5.128906 7.179688 11.808594 9.246094 19.851562l1.210938 4.726563-22.523438 6.179687-1.375-4.667968c-1.46875-4.992188-3.265625-8.890625-5.332031-11.589844-1.910156-2.496094-4.769531-4.5625-8.496094-6.136719-3.917969-1.65625-8.367187-2.496093-13.222656-2.496093-5.960937 0-11.125.890624-15.34375 2.652343-4.144531 1.734375-7.5 4-9.96875 6.734375-2.582031 2.867188-4.617187 6.054688-6.046875 9.46875-2.527344 6.144532-3.816406 12.957032-3.816406 20.21875 0 8.964844 1.519531 16.484375 4.519531 22.347656 2.90625 5.683594 7.003906 9.78125 12.53125 12.519532 5.730469 2.84375 11.902344 4.285156 18.351563 4.285156 5.632812 0 11.214843-1.101562 16.59375-3.277344 4.417968-1.785156 7.953124-3.644531 10.554687-5.539062v-13.148438h-32.335937v-22.8125l56.503906-.089844zm0 0"/></svg>