<?xml version="1.0" standalone="no"?>
<!DOCTYPE svg PUBLIC "-//W3C//DTD SVG 20010904//EN"
 "http://www.w3.org/TR/2001/REC-SVG-20010904/DTD/svg10.dtd">
<svg version="1.0" xmlns="http://www.w3.org/2000/svg"
 width="1280.000000pt" height="1280.000000pt" viewBox="0 0 1280.000000 1280.000000"
 preserveAspectRatio="xMidYMid meet">
<metadata>
Created by potrace 1.16, written by Peter Selinger 2001-2019
</metadata>
<g transform="translate(0.000000,1280.000000) scale(0.100000,-0.100000)"
fill="#000000" stroke="none">
<path d="M5958 12059 c-236 -29 -479 -128 -673 -275 -109 -82 -5251 -5231
-5270 -5276 -22 -55 -20 -172 5 -222 13 -28 835 -856 2632 -2652 2341 -2339
2622 -2617 2702 -2669 164 -106 344 -178 530 -212 127 -23 381 -23 501 1 514
101 922 456 1080 940 47 144 67 276 67 441 0 317 -90 590 -278 846 -26 35
-500 517 -1053 1072 l-1006 1007 3158 0 c2157 0 3189 3 3255 11 595 65 1076
513 1176 1098 20 120 21 340 1 457 -100 585 -579 1038 -1168 1103 -67 8 -1070
11 -3259 11 l-3163 0 1006 1008 c553 554 1027 1036 1053 1071 187 254 276 525
277 841 1 171 -18 299 -66 446 -136 416 -467 751 -879 888 -184 61 -443 88
-628 65z"/>
</g>
</svg>